<svg width="1240" height="360" viewBox="0 0 1240 360" fill="none" xmlns="http://www.w3.org/2000/svg">
  <defs>
    <filter id="badgeShadow" x="0" y="8" width="412" height="344" filterUnits="userSpaceOnUse" color-interpolation-filters="sRGB">
      <feFlood flood-opacity="0" result="BackgroundImageFix" />
      <feColorMatrix in="SourceAlpha" type="matrix" values="0 0 0 0 0 0 0 0 0 0 0 0 0 0 0 0 0 0 127 0" result="hardAlpha" />
      <feOffset dy="18" />
      <feGaussianBlur stdDeviation="16" />
      <feColorMatrix type="matrix" values="0 0 0 0 0.121569 0 0 0 0 0.278431 0 0 0 0 0.533333 0 0 0 0.18 0" />
      <feBlend mode="normal" in2="BackgroundImageFix" result="effect1_dropShadow_0_2" />
      <feBlend mode="normal" in="SourceGraphic" in2="effect1_dropShadow_0_2" result="shape" />
    </filter>
    <filter id="titleShadow" x="350" y="30" width="858" height="284" filterUnits="userSpaceOnUse" color-interpolation-filters="sRGB">
      <feFlood flood-opacity="0" result="BackgroundImageFix" />
      <feColorMatrix in="SourceAlpha" type="matrix" values="0 0 0 0 0 0 0 0 0 0 0 0 0 0 0 0 0 0 127 0" result="hardAlpha" />
      <feOffset dy="10" />
      <feGaussianBlur stdDeviation="10" />
      <feColorMatrix type="matrix" values="0 0 0 0 0.121569 0 0 0 0 0.278431 0 0 0 0 0.533333 0 0 0 0.2 0" />
      <feBlend mode="normal" in2="BackgroundImageFix" result="effect1_dropShadow_0_2" />
      <feBlend mode="normal" in="SourceGraphic" in2="effect1_dropShadow_0_2" result="shape" />
    </filter>
    <linearGradient id="titleFill" x1="778" y1="38" x2="778" y2="260" gradientUnits="userSpaceOnUse">
      <stop stop-color="#9BE8FF" />
      <stop offset="1" stop-color="#4D92FF" />
    </linearGradient>
    <linearGradient id="badgeBg" x1="54" y1="36" x2="306" y2="290" gradientUnits="userSpaceOnUse">
      <stop stop-color="#EAFBFF" />
      <stop offset="1" stop-color="#D8F5EE" />
    </linearGradient>
    <linearGradient id="badgeBlue" x1="96" y1="178" x2="222" y2="232" gradientUnits="userSpaceOnUse">
      <stop stop-color="#A8E6FF" />
      <stop offset="1" stop-color="#5AB2E8" />
    </linearGradient>
    <linearGradient id="badgeGreen" x1="132" y1="212" x2="294" y2="264" gradientUnits="userSpaceOnUse">
      <stop stop-color="#C7EB83" />
      <stop offset="1" stop-color="#79C84F" />
    </linearGradient>
    <linearGradient id="badgeBrown" x1="82" y1="242" x2="268" y2="292" gradientUnits="userSpaceOnUse">
      <stop stop-color="#C89A6A" />
      <stop offset="1" stop-color="#96633E" />
    </linearGradient>
  </defs>

  <g filter="url(#badgeShadow)" transform="translate(32 36)">
    <rect x="0" y="0" width="316" height="280" rx="90" fill="url(#badgeBg)" />
    <path d="M20 238C42 222 68 214 100 212H290C301 212 310 221 310 232C310 243 301 252 290 252H94C64 252 40 248 20 238Z" fill="url(#badgeBrown)" stroke="#7B5235" stroke-width="7" stroke-linejoin="round" />
    <path d="M80 204H266C278 204 288 214 288 226C288 238 278 248 266 248H80C68 248 58 238 58 226C58 214 68 204 80 204Z" fill="url(#badgeGreen)" stroke="#668E32" stroke-width="7" />
    <path d="M64 170H208C220 170 230 180 230 192C230 204 220 214 208 214H64C52 214 42 204 42 192C42 180 52 170 64 170Z" fill="url(#badgeBlue)" stroke="#3A6B8C" stroke-width="7" />
    <rect x="40" y="84" width="20" height="92" rx="10" fill="#B5DB69" stroke="#709332" stroke-width="6" />
    <rect x="68" y="70" width="22" height="106" rx="11" fill="#C6E57B" stroke="#709332" stroke-width="6" />
    <circle cx="176" cy="98" r="28" fill="#2C2B33" />
    <circle cx="112" cy="98" r="28" fill="#2C2B33" />
    <circle cx="144" cy="118" r="70" fill="#FFFDF8" stroke="#E9E2D5" stroke-width="3" />
    <ellipse cx="156" cy="202" rx="88" ry="74" fill="#FFFDF8" stroke="#E9E2D5" stroke-width="3" />
    <ellipse cx="116" cy="124" rx="20" ry="28" transform="rotate(-18 116 124)" fill="#2E2D34" />
    <ellipse cx="180" cy="124" rx="20" ry="28" transform="rotate(18 180 124)" fill="#2E2D34" />
    <path d="M106 120C111 113 117 110 124 108" stroke="#15151A" stroke-width="4.5" stroke-linecap="round" />
    <path d="M164 108C171 110 177 113 182 120" stroke="#15151A" stroke-width="4.5" stroke-linecap="round" />
    <path d="M112 134C116 138 120 138 124 134" stroke="#15151A" stroke-width="4.5" stroke-linecap="round" />
    <path d="M164 134C168 138 172 138 176 134" stroke="#15151A" stroke-width="4.5" stroke-linecap="round" />
    <ellipse cx="124" cy="146" rx="7" ry="5" fill="#F7C9D0" />
    <ellipse cx="176" cy="146" rx="7" ry="5" fill="#F7C9D0" />
    <path d="M136 152C136 145 141 141 146 141C151 141 156 145 156 152C156 159 151 163 146 163C141 163 136 159 136 152Z" fill="#2C2B33" />
    <path d="M134 170C140 177 152 177 158 170" stroke="#2C2B33" stroke-width="4.5" stroke-linecap="round" />
    <rect x="152" y="142" width="78" height="60" rx="12" fill="#B77A43" stroke="#7C4F2A" stroke-width="6" />
    <path d="M191 146V196" stroke="#E8C69B" stroke-width="4" />
    <ellipse cx="98" cy="178" rx="18" ry="40" transform="rotate(26 98 178)" fill="#2C2B33" />
    <ellipse cx="226" cy="190" rx="18" ry="40" transform="rotate(-14 226 190)" fill="#2C2B33" />
    <ellipse cx="112" cy="256" rx="31" ry="42" transform="rotate(14 112 256)" fill="#2C2B33" />
    <ellipse cx="220" cy="256" rx="32" ry="44" transform="rotate(-18 220 256)" fill="#2C2B33" />
    <ellipse cx="114" cy="264" rx="11" ry="9" fill="#F3C7CD" />
    <ellipse cx="220" cy="264" rx="11" ry="9" fill="#F3C7CD" />
  </g>

  <g filter="url(#titleShadow)">
    <text
      x="420"
      y="154"
      fill="url(#titleFill)"
      stroke="#1F57A7"
      stroke-width="18"
      paint-order="stroke"
      font-family="'Baloo 2', 'Poppins', 'Trebuchet MS', sans-serif"
      font-size="126"
      font-weight="800"
      letter-spacing="-0.05em"
    >
      Lazy
    </text>
    <text
      x="614"
      y="250"
      fill="url(#titleFill)"
      stroke="#1F57A7"
      stroke-width="18"
      paint-order="stroke"
      font-family="'Baloo 2', 'Poppins', 'Trebuchet MS', sans-serif"
      font-size="134"
      font-weight="800"
      letter-spacing="-0.05em"
    >
      Learning
    </text>
  </g>

  <rect x="430" y="278" width="440" height="42" rx="21" fill="#EFF7FF" />
  <text
    x="650"
    y="305"
    text-anchor="middle"
    fill="#5070A0"
    font-family="Inter, 'Segoe UI', Arial, sans-serif"
    font-size="22"
    font-weight="700"
    letter-spacing="0.24em"
  >
    CUTE. CALM. SMART LEARNING.
  </text>
</svg>
