<svg width="512" height="512" viewBox="0 0 512 512" fill="none" xmlns="http://www.w3.org/2000/svg">
  <defs>
    <filter id="shadow" x="32" y="28" width="448" height="456" filterUnits="userSpaceOnUse" color-interpolation-filters="sRGB">
      <feFlood flood-opacity="0" result="BackgroundImageFix" />
      <feColorMatrix in="SourceAlpha" type="matrix" values="0 0 0 0 0 0 0 0 0 0 0 0 0 0 0 0 0 0 127 0" result="hardAlpha" />
      <feOffset dy="16" />
      <feGaussianBlur stdDeviation="14" />
      <feColorMatrix type="matrix" values="0 0 0 0 0.141176 0 0 0 0 0.313726 0 0 0 0 0.580392 0 0 0 0.22 0" />
      <feBlend mode="normal" in2="BackgroundImageFix" result="effect1_dropShadow_0_1" />
      <feBlend mode="normal" in="SourceGraphic" in2="effect1_dropShadow_0_1" result="shape" />
    </filter>
    <linearGradient id="bg" x1="72" y1="68" x2="428" y2="444" gradientUnits="userSpaceOnUse">
      <stop stop-color="#EAFBFF" />
      <stop offset="1" stop-color="#D8F5EE" />
    </linearGradient>
    <linearGradient id="bookBlue" x1="130" y1="254" x2="312" y2="330" gradientUnits="userSpaceOnUse">
      <stop stop-color="#A8E6FF" />
      <stop offset="1" stop-color="#5AB2E8" />
    </linearGradient>
    <linearGradient id="bookGreen" x1="182" y1="304" x2="416" y2="390" gradientUnits="userSpaceOnUse">
      <stop stop-color="#C7EB83" />
      <stop offset="1" stop-color="#79C84F" />
    </linearGradient>
    <linearGradient id="bookBrown" x1="112" y1="347" x2="350" y2="421" gradientUnits="userSpaceOnUse">
      <stop stop-color="#C89A6A" />
      <stop offset="1" stop-color="#96633E" />
    </linearGradient>
  </defs>

  <g filter="url(#shadow)">
    <rect x="56" y="52" width="400" height="404" rx="132" fill="url(#bg)" />
    <path d="M82 386C110 367 144 356 184 352H423C437 352 448 363 448 377C448 391 437 402 423 402H176C136 402 106 397 82 386Z" fill="url(#bookBrown)" stroke="#7B5235" stroke-width="10" stroke-linejoin="round" />
    <path d="M156 340H394C409 340 422 352 422 367C422 382 409 394 394 394H156C141 394 128 382 128 367C128 352 141 340 156 340Z" fill="url(#bookGreen)" stroke="#668E32" stroke-width="10" />
    <path d="M136 292H322C337 292 350 304 350 319C350 334 337 346 322 346H136C121 346 108 334 108 319C108 304 121 292 136 292Z" fill="url(#bookBlue)" stroke="#3A6B8C" stroke-width="10" />
    <rect x="106" y="174" width="28" height="126" rx="14" fill="#B5DB69" stroke="#709332" stroke-width="8" />
    <rect x="144" y="154" width="30" height="148" rx="15" fill="#C6E57B" stroke="#709332" stroke-width="8" />
    <path d="M92 268C78 274 70 286 68 302" stroke="#69A14E" stroke-width="8" stroke-linecap="round" />
    <path d="M92 268C82 254 70 246 56 244" stroke="#69A14E" stroke-width="8" stroke-linecap="round" />
    <path d="M168 258C182 252 194 242 204 228" stroke="#69A14E" stroke-width="8" stroke-linecap="round" />
    <path d="M168 276C182 282 194 292 204 306" stroke="#69A14E" stroke-width="8" stroke-linecap="round" />
    <circle cx="298" cy="174" r="38" fill="#2C2B33" />
    <circle cx="204" cy="174" r="38" fill="#2C2B33" />
    <circle cx="252" cy="202" r="94" fill="#FFFDF8" stroke="#E9E2D5" stroke-width="4" />
    <ellipse cx="250" cy="312" rx="118" ry="102" fill="#FFFDF8" stroke="#E9E2D5" stroke-width="4" />
    <ellipse cx="212" cy="211" rx="28" ry="38" transform="rotate(-18 212 211)" fill="#2E2D34" />
    <ellipse cx="296" cy="211" rx="28" ry="38" transform="rotate(18 296 211)" fill="#2E2D34" />
    <path d="M198 205C205 195 214 190 224 188" stroke="#15151A" stroke-width="6" stroke-linecap="round" />
    <path d="M280 188C290 190 299 195 306 205" stroke="#15151A" stroke-width="6" stroke-linecap="round" />
    <path d="M206 224C212 229 218 229 224 224" stroke="#15151A" stroke-width="6" stroke-linecap="round" />
    <path d="M280 224C286 229 292 229 298 224" stroke="#15151A" stroke-width="6" stroke-linecap="round" />
    <ellipse cx="222" cy="238" rx="10" ry="7" fill="#F7C9D0" />
    <ellipse cx="292" cy="238" rx="10" ry="7" fill="#F7C9D0" />
    <path d="M245 246C245 236 251 230 258 230C265 230 271 236 271 246C271 256 265 262 258 262C251 262 245 256 245 246Z" fill="#2C2B33" />
    <path d="M242 272C251 282 265 282 274 272" stroke="#2C2B33" stroke-width="6" stroke-linecap="round" />
    <rect x="230" y="254" width="118" height="92" rx="16" fill="#B77A43" stroke="#7C4F2A" stroke-width="8" />
    <path d="M288 258V342" stroke="#E8C69B" stroke-width="6" />
    <path d="M234 270C258 278 274 278 288 270" stroke="#D09A63" stroke-width="5" stroke-linecap="round" />
    <ellipse cx="190" cy="288" rx="24" ry="54" transform="rotate(26 190 288)" fill="#2C2B33" />
    <ellipse cx="344" cy="304" rx="24" ry="54" transform="rotate(-14 344 304)" fill="#2C2B33" />
    <ellipse cx="212" cy="390" rx="42" ry="60" transform="rotate(14 212 390)" fill="#2C2B33" />
    <ellipse cx="340" cy="392" rx="44" ry="62" transform="rotate(-18 340 392)" fill="#2C2B33" />
    <ellipse cx="214" cy="404" rx="15" ry="12" fill="#F3C7CD" />
    <ellipse cx="340" cy="404" rx="15" ry="12" fill="#F3C7CD" />
  </g>
</svg>
